<svg width="24" height="24" viewBox="0 0 24 24" fill="none" xmlns="http://www.w3.org/2000/svg">
<path d="M22.9538 10.1229L20.3077 2.61523H3.69228L1.10767 9.93831V21.6306H22.9538V10.1229ZM4.3692 3.53831H19.6307L21.7846 9.63062H2.21536L4.3692 3.53831ZM21.9692 20.7691H2.03074V10.5537H22.0307L21.9692 20.7691Z" fill="#111111" stroke="#111111" stroke-width="0.692308" stroke-linejoin="round"/>
<path d="M15.6902 13.2609L15.5976 13.1619C15.3364 12.8826 14.8983 12.8679 14.619 13.129C14.6158 13.1321 14.6125 13.1352 14.6093 13.1383L10.65 16.9876L9.39079 15.7633C9.11665 15.4968 8.67835 15.503 8.41182 15.7771C8.40869 15.7803 8.40559 15.7836 8.40252 15.7869L8.30992 15.8859C8.05236 16.1613 8.06263 16.5922 8.33301 16.8551L10.1674 18.6386C10.4361 18.8998 10.8639 18.8998 11.1326 18.6386L15.6671 14.2301C15.9375 13.9672 15.9477 13.5363 15.6902 13.2609Z" fill="#111111"/>
<path d="M12.4614 3.69238H11.5383V9.23084H12.4614V3.69238Z" fill="#D8D8D8" stroke="black" stroke-width="0.923077"/>
</svg>
