<svg width="20" height="20" viewBox="0 0 20 20" fill="none" xmlns="http://www.w3.org/2000/svg">
<g clip-path="url(#clip0_2_7638)">
<path d="M3.40018 17.1V14.7C3.40018 13.9043 3.71625 13.1412 4.27886 12.5786C4.84147 12.016 5.60453 11.7 6.40018 11.7H13.6002C14.3958 11.7 15.1589 12.016 15.7215 12.5786C16.2841 13.1412 16.6002 13.9043 16.6002 14.7V17.1" stroke="#111111" stroke-width="1.6"/>
<path d="M13.0001 6.29999C13.0001 7.09564 12.6841 7.8587 12.1214 8.42131C11.5588 8.98392 10.7958 9.29999 10.0001 9.29999C9.20447 9.29999 8.44141 8.98392 7.8788 8.42131C7.31619 7.8587 7.00012 7.09564 7.00012 6.29999C7.00012 5.50434 7.31619 4.74128 7.8788 4.17867C8.44141 3.61606 9.20447 3.29999 10.0001 3.29999C10.7958 3.29999 11.5588 3.61606 12.1214 4.17867C12.6841 4.74128 13.0001 5.50434 13.0001 6.29999Z" stroke="#111111" stroke-width="1.6"/>
</g>
<defs>
<clipPath id="clip0_2_7638">
<rect width="19.2" height="19.2" fill="white" transform="translate(0.400146 0.299988)"/>
</clipPath>
</defs>
</svg>
