<svg width="25" height="25" viewBox="0 0 25 25" fill="none" xmlns="http://www.w3.org/2000/svg">
<g clip-path="url(#clip0_1_5371)">
<path d="M17.294 4.64064C18.618 4.64064 19.862 5.15664 20.798 6.09164C21.7262 7.02156 22.2475 8.28176 22.2475 9.59564C22.2475 10.9095 21.7262 12.1697 20.798 13.0996L12.5 21.3986L4.20096 13.0996C3.27307 12.1698 2.75195 10.9098 2.75195 9.59614C2.75195 8.2825 3.27307 7.02252 4.20096 6.09264C4.65999 5.63094 5.20604 5.26488 5.80751 5.01564C6.40897 4.7664 7.0539 4.63894 7.70496 4.64064C9.02896 4.64064 10.273 5.15664 11.209 6.09164L11.969 6.85164L12.5 7.38264L13.03 6.85164L13.79 6.09164C14.2492 5.63026 14.7953 5.26446 15.3967 5.01541C15.9982 4.76636 16.643 4.63898 17.294 4.64064Z" stroke="#111111" stroke-width="1.5"/>
</g>
<defs>
<clipPath id="clip0_1_5371">
<rect width="24" height="24" fill="white" transform="translate(0.5 0.890625)"/>
</clipPath>
</defs>
</svg>
