<svg width="16" height="16" viewBox="0 0 16 16" fill="none" xmlns="http://www.w3.org/2000/svg">
<path d="M9.04016 1.61195V1.56395C9.04016 1.33995 9.11216 1.13995 9.25616 0.963951C9.40016 0.787951 9.58416 0.699951 9.80816 0.699951C10.0322 0.699951 10.2322 0.771951 10.4082 0.915951C10.5842 1.05995 10.6802 1.25195 10.6962 1.49195C10.7122 1.73195 10.6402 1.93195 10.4802 2.09195C10.3202 2.25195 10.1282 2.33195 9.90416 2.33195L9.76016 2.37995L9.80816 2.45195L9.76016 2.71595L9.66416 3.48395C9.69616 3.51595 9.71216 3.54795 9.71216 3.57995L9.61616 4.05995C9.58416 4.12395 9.55216 4.17195 9.52016 4.20395L9.47216 4.39595C9.40816 4.65195 9.35216 4.85995 9.30416 5.01995C9.25616 5.17995 9.21616 5.30795 9.18417 5.40395V5.49995C9.15216 5.65995 9.12816 5.78795 9.11216 5.88395C9.09616 5.97995 9.04016 6.13995 8.94416 6.36395C8.88016 6.49195 8.88016 6.69995 8.94416 6.98795L8.99216 7.03595C8.99216 7.13195 9.03216 7.24395 9.11216 7.37195C9.19216 7.49995 9.23216 7.61195 9.23216 7.70795C9.26416 8.34795 9.21616 8.89195 9.08816 9.33995L9.18417 9.62795C9.56816 9.81995 9.68016 10.028 9.52016 10.252L9.76016 10.348C10.1442 10.54 10.4162 10.708 10.5762 10.852C10.7362 10.996 10.8962 11.148 11.0562 11.308C11.1842 11.34 11.2802 11.388 11.3442 11.452L11.4882 11.5C12.1602 11.948 12.8322 12.492 13.5042 13.132L13.6962 13.276V13.324L13.6482 13.42L13.7922 13.516H13.8402C13.9362 13.58 14.0002 13.612 14.0322 13.612H14.0802C14.1122 13.612 14.1442 13.596 14.1762 13.564L14.2722 13.516C14.3362 13.452 14.4002 13.404 14.4642 13.372H14.6562C14.6882 13.372 14.6882 13.388 14.6562 13.42L14.4642 13.516L14.2242 13.804H14.5602L14.8962 13.852C14.9922 13.82 15.0722 13.788 15.1362 13.756L15.3762 13.612C15.4722 13.58 15.5682 13.612 15.6642 13.708H15.7122C15.7442 13.74 15.7282 13.788 15.6642 13.852L15.0882 14.38C14.9282 14.508 14.7842 14.588 14.6562 14.62L14.0322 15.052C14.0002 15.084 13.9682 15.084 13.9362 15.052L13.7922 14.86L13.6962 14.668L13.5762 14.5L13.4322 14.308L13.3122 14.164L13.2162 14.044L13.0242 13.9C12.9602 13.9 12.8962 13.884 12.8322 13.852L12.2082 13.372C12.1122 13.372 12.0002 13.324 11.8722 13.228C11.3922 12.812 11.0722 12.556 10.9122 12.46L10.6242 12.268L10.0482 12.172C9.85616 12.14 9.60016 12.044 9.28016 11.884L8.89616 11.692C8.64016 11.564 8.46416 11.5 8.36816 11.5L8.17616 11.404C8.04816 11.372 7.95216 11.34 7.88816 11.308L7.79216 11.212C7.72816 11.212 7.66416 11.228 7.60016 11.26L6.64016 11.74L5.44016 12.268C5.12016 12.524 4.81616 12.732 4.52816 12.892L4.00016 13.132L3.18416 13.708C3.12016 13.772 3.05616 13.772 2.99216 13.708L2.89616 13.804C2.80016 13.836 2.73616 13.852 2.70416 13.852L2.51216 13.948V14.044H2.41616L2.32016 14.188C2.25616 14.316 2.19216 14.388 2.12816 14.404C2.06416 14.42 2.02416 14.444 2.00816 14.476C1.99216 14.508 1.97616 14.532 1.96016 14.548L1.86416 14.644L1.72016 14.74L1.50416 14.716L1.21616 14.764L1.02416 14.812C0.864164 14.844 0.736164 14.82 0.640164 14.74C0.544164 14.66 0.464164 14.54 0.400164 14.38C0.336164 14.284 0.368164 14.204 0.496164 14.14L0.544164 14.092C0.576164 14.06 0.624164 14.044 0.688164 14.044H0.976164L1.36016 13.9L1.55216 13.852C1.55216 13.788 1.56816 13.74 1.60016 13.708C1.63216 13.676 1.68016 13.66 1.74416 13.66V13.612C1.71216 13.548 1.69616 13.484 1.69616 13.42C1.66416 13.356 1.65616 13.308 1.67216 13.276C1.68816 13.244 1.70416 13.228 1.72016 13.228H1.74416L1.79216 13.372C1.82416 13.532 1.87216 13.58 1.93616 13.516L1.98416 13.42C2.01616 13.356 2.06416 13.324 2.12816 13.324L2.22416 13.42L2.32016 13.324L2.27216 13.276C2.27216 13.244 2.28816 13.228 2.32016 13.228L2.51216 13.036C2.67216 12.844 2.86416 12.668 3.08816 12.508C3.53616 12.156 4.01616 11.884 4.52816 11.692C4.68816 11.532 4.86416 11.452 5.05616 11.452C5.18416 11.228 5.37616 10.988 5.63216 10.732C5.85616 10.572 6.01616 10.46 6.11216 10.396C6.17616 10.268 6.25616 10.204 6.35216 10.204H6.40016L6.49616 10.108C6.56016 10.076 6.60816 10.044 6.64016 10.012V9.77195C6.64016 9.61195 6.65616 9.48395 6.68816 9.38795C6.72016 9.29195 6.80016 9.24395 6.92816 9.24395L7.12016 9.05195C7.05616 8.92395 7.02416 8.77995 7.02416 8.61995H6.97616C6.91216 8.52395 6.88016 8.42795 6.88016 8.33195C6.78416 8.17195 6.72016 8.04395 6.68816 7.94795H6.54416C6.51216 8.04395 6.43216 8.10795 6.30416 8.13995L6.25616 8.23595C6.12816 8.45995 6.01616 8.62795 5.92016 8.73995C5.82416 8.85195 5.64816 8.98795 5.39216 9.14795C5.23216 9.30795 5.12016 9.48395 5.05616 9.67595C5.02416 9.77195 5.02416 9.86795 5.05616 9.96395L5.00816 10.06H5.05616C5.05616 10.124 5.07216 10.156 5.10416 10.156H5.15216C5.21616 10.188 5.24816 10.228 5.24816 10.276C5.24816 10.324 5.20016 10.34 5.10416 10.324C5.00816 10.308 4.93616 10.276 4.88816 10.228C4.84016 10.18 4.80016 10.156 4.76816 10.156L4.62416 10.3C4.56016 10.396 4.49616 10.436 4.43216 10.42C4.36816 10.404 4.35216 10.38 4.38416 10.348L4.43216 10.3C4.46416 10.236 4.46416 10.204 4.43216 10.204L4.04816 10.3C4.01616 10.332 3.97616 10.332 3.92816 10.3C3.88016 10.268 3.88816 10.236 3.95216 10.204L4.19216 10.108C4.19216 10.076 4.17616 10.06 4.14416 10.06C4.01616 10.124 3.88816 10.14 3.76016 10.108L3.52016 10.06L3.47216 10.012C3.47216 9.97995 3.48816 9.96395 3.52016 9.96395C3.64816 9.99595 3.80816 9.97995 4.00016 9.91595L4.33616 9.77195L4.72016 9.33995L4.76816 9.24395C4.89616 8.98795 5.03216 8.75595 5.17616 8.54795C5.32016 8.33995 5.47216 8.17195 5.63216 8.04395L5.68016 7.85195C5.74416 7.72395 5.80816 7.61195 5.87216 7.51595C5.93616 7.41995 6.01616 7.29195 6.11216 7.13195L6.25616 6.93995C6.38416 6.74795 6.52816 6.65195 6.68816 6.65195L6.83216 6.50795C6.86416 6.47595 6.88016 6.42795 6.88016 6.36395L6.97616 6.26795L6.92816 6.21995C6.73616 6.05995 6.64016 5.91595 6.64016 5.78795C6.60816 5.56395 6.68016 5.37195 6.85616 5.21195C7.03216 5.05195 7.20816 4.97995 7.38416 4.99595C7.56016 5.01195 7.69616 5.06795 7.79216 5.16395L7.88816 5.25995C7.92016 5.25995 7.93616 5.27595 7.93616 5.30795L8.12816 5.40395V5.54795C8.19216 5.61195 8.22416 5.65995 8.22416 5.69195C8.28816 5.59595 8.38416 5.48395 8.51217 5.35595L8.75216 4.58795C8.75216 4.45995 8.78416 4.33195 8.84816 4.20395L8.94416 4.05995V3.96395L9.08816 3.38795H9.18417L9.32816 2.81195C9.36016 2.71595 9.36016 2.60395 9.32816 2.47595L9.13616 1.99595L9.04016 1.61195Z" fill="#111111"/>
</svg>
